<svg xmlns="http://www.w3.org/2000/svg" viewBox="0 0 512 512" role="img" aria-label="Every Music">
  <rect width="512" height="512" rx="112" fill="#f39c12"/>
  <circle cx="256" cy="256" r="176" fill="#ffffff" opacity="0.94"/>
  <path d="M310 132v206c0 42-34 76-83 76-42 0-76-26-76-60 0-35 34-61 78-61 19 0 36 5 49 14V171l114-25v52l-82 18z" fill="#2c3e50"/>
  <path d="M175 189c26-31 64-49 105-49 32 0 62 10 87 28" fill="none" stroke="#f39c12" stroke-width="22" stroke-linecap="round"/>
  <path d="M153 243c9-20 23-38 40-53" fill="none" stroke="#f39c12" stroke-width="22" stroke-linecap="round"/>
</svg>
